solid ASCII
  facet normal -9.914449e-01 1.305262e-01 0.000000e+00
    outer loop
      vertex   -1.600000e+01 3.150000e+01 0.000000e+00
      vertex   -1.600000e+01 3.150000e+01 6.000000e+00
      vertex   -1.596593e+01 3.175882e+01 0.000000e+00
    endloop
  endfacet
  facet normal -9.914449e-01 1.305262e-01 0.000000e+00
    outer loop
      vertex   -1.596593e+01 3.175882e+01 0.000000e+00
      vertex   -1.600000e+01 3.150000e+01 6.000000e+00
      vertex   -1.596593e+01 3.175882e+01 6.000000e+00
    endloop
  endfacet
  facet normal -9.238795e-01 3.826834e-01 0.000000e+00
    outer loop
      vertex   -1.596593e+01 3.175882e+01 0.000000e+00
      vertex   -1.596593e+01 3.175882e+01 6.000000e+00
      vertex   -1.586603e+01 3.200000e+01 0.000000e+00
    endloop
  endfacet
  facet normal -9.238795e-01 3.826834e-01 0.000000e+00
    outer loop
      vertex   -1.586603e+01 3.200000e+01 0.000000e+00
      vertex   -1.596593e+01 3.175882e+01 6.000000e+00
      vertex   -1.586603e+01 3.200000e+01 6.000000e+00
    endloop
  endfacet
  facet normal -7.933533e-01 6.087614e-01 0.000000e+00
    outer loop
      vertex   -1.586603e+01 3.200000e+01 0.000000e+00
      vertex   -1.586603e+01 3.200000e+01 6.000000e+00
      vertex   -1.570711e+01 3.220711e+01 0.000000e+00
    endloop
  endfacet
  facet normal -7.933533e-01 6.087614e-01 0.000000e+00
    outer loop
      vertex   -1.570711e+01 3.220711e+01 0.000000e+00
      vertex   -1.586603e+01 3.200000e+01 6.000000e+00
      vertex   -1.570711e+01 3.220711e+01 6.000000e+00
    endloop
  endfacet
  facet normal -6.087614e-01 7.933533e-01 0.000000e+00
    outer loop
      vertex   -1.570711e+01 3.220711e+01 0.000000e+00
      vertex   -1.570711e+01 3.220711e+01 6.000000e+00
      vertex   -1.550000e+01 3.236603e+01 0.000000e+00
    endloop
  endfacet
  facet normal -6.087614e-01 7.933533e-01 0.000000e+00
    outer loop
      vertex   -1.550000e+01 3.236603e+01 0.000000e+00
      vertex   -1.570711e+01 3.220711e+01 6.000000e+00
      vertex   -1.550000e+01 3.236603e+01 6.000000e+00
    endloop
  endfacet
  facet normal -3.826834e-01 9.238795e-01 0.000000e+00
    outer loop
      vertex   -1.550000e+01 3.236603e+01 0.000000e+00
      vertex   -1.550000e+01 3.236603e+01 6.000000e+00
      vertex   -1.525882e+01 3.246593e+01 0.000000e+00
    endloop
  endfacet
  facet normal -3.826834e-01 9.238795e-01 0.000000e+00
    outer loop
      vertex   -1.525882e+01 3.246593e+01 0.000000e+00
      vertex   -1.550000e+01 3.236603e+01 6.000000e+00
      vertex   -1.525882e+01 3.246593e+01 6.000000e+00
    endloop
  endfacet
  facet normal -1.305262e-01 9.914449e-01 0.000000e+00
    outer loop
      vertex   -1.525882e+01 3.246593e+01 0.000000e+00
      vertex   -1.525882e+01 3.246593e+01 6.000000e+00
      vertex   -1.500000e+01 3.250000e+01 0.000000e+00
    endloop
  endfacet
  facet normal -1.305262e-01 9.914449e-01 0.000000e+00
    outer loop
      vertex   -1.500000e+01 3.250000e+01 0.000000e+00
      vertex   -1.525882e+01 3.246593e+01 6.000000e+00
      vertex   -1.500000e+01 3.250000e+01 6.000000e+00
    endloop
  endfacet
  facet normal -0.000000e+00 1.000000e+00 0.000000e+00
    outer loop
      vertex   -1.500000e+01 3.250000e+01 6.000000e+00
      vertex   1.500000e+01 3.250000e+01 6.000000e+00
      vertex   -1.500000e+01 3.250000e+01 0.000000e+00
    endloop
  endfacet
  facet normal 0.000000e+00 1.000000e+00 0.000000e+00
    outer loop
      vertex   -1.500000e+01 3.250000e+01 0.000000e+00
      vertex   1.500000e+01 3.250000e+01 6.000000e+00
      vertex   1.500000e+01 3.250000e+01 0.000000e+00
    endloop
  endfacet
  facet normal -0.000000e+00 0.000000e+00 1.000000e+00
    outer loop
      vertex   -1.525882e+01 3.246593e+01 6.000000e+00
      vertex   -1.600000e+01 3.150000e+01 6.000000e+00
      vertex   -1.500000e+01 3.250000e+01 6.000000e+00
    endloop
  endfacet
  facet normal 0.000000e+00 0.000000e+00 1.000000e+00
    outer loop
      vertex   -1.500000e+01 3.250000e+01 6.000000e+00
      vertex   -1.600000e+01 3.150000e+01 6.000000e+00
      vertex   -1.000000e+01 1.250000e+01 6.000000e+00
    endloop
  endfacet
  facet normal 0.000000e+00 0.000000e+00 1.000000e+00
    outer loop
      vertex   -1.500000e+01 3.250000e+01 6.000000e+00
      vertex   -1.000000e+01 1.250000e+01 6.000000e+00
      vertex   1.000000e+01 1.250000e+01 6.000000e+00
    endloop
  endfacet
  facet normal 0.000000e+00 0.000000e+00 1.000000e+00
    outer loop
      vertex   -1.525882e+01 3.246593e+01 6.000000e+00
      vertex   -1.550000e+01 3.236603e+01 6.000000e+00
      vertex   -1.600000e+01 3.150000e+01 6.000000e+00
    endloop
  endfacet
  facet normal 0.000000e+00 0.000000e+00 1.000000e+00
    outer loop
      vertex   -1.600000e+01 3.150000e+01 6.000000e+00
      vertex   -1.550000e+01 3.236603e+01 6.000000e+00
      vertex   -1.570711e+01 3.220711e+01 6.000000e+00
    endloop
  endfacet
  facet normal 0.000000e+00 0.000000e+00 1.000000e+00
    outer loop
      vertex   -1.600000e+01 3.150000e+01 6.000000e+00
      vertex   -1.570711e+01 3.220711e+01 6.000000e+00
      vertex   -1.586603e+01 3.200000e+01 6.000000e+00
    endloop
  endfacet
  facet normal 0.000000e+00 0.000000e+00 1.000000e+00
    outer loop
      vertex   -1.586603e+01 3.200000e+01 6.000000e+00
      vertex   -1.596593e+01 3.175882e+01 6.000000e+00
      vertex   -1.600000e+01 3.150000e+01 6.000000e+00
    endloop
  endfacet
  facet normal 0.000000e+00 0.000000e+00 1.000000e+00
    outer loop
      vertex   -1.600000e+01 3.150000e+01 6.000000e+00
      vertex   -1.600000e+01 -3.150000e+01 6.000000e+00
      vertex   -1.000000e+01 1.250000e+01 6.000000e+00
    endloop
  endfacet
  facet normal 0.000000e+00 0.000000e+00 1.000000e+00
    outer loop
      vertex   -1.000000e+01 1.250000e+01 6.000000e+00
      vertex   -1.600000e+01 -3.150000e+01 6.000000e+00
      vertex   -1.000000e+01 -3.150000e+01 6.000000e+00
    endloop
  endfacet
  facet normal 0.000000e+00 0.000000e+00 1.000000e+00
    outer loop
      vertex   -1.000000e+01 -3.150000e+01 6.000000e+00
      vertex   -1.600000e+01 -3.150000e+01 6.000000e+00
      vertex   -1.500000e+01 -3.250000e+01 6.000000e+00
    endloop
  endfacet
  facet normal 0.000000e+00 0.000000e+00 1.000000e+00
    outer loop
      vertex   -1.000000e+01 -3.150000e+01 6.000000e+00
      vertex   -1.500000e+01 -3.250000e+01 6.000000e+00
      vertex   -1.100000e+01 -3.250000e+01 6.000000e+00
    endloop
  endfacet
  facet normal -0.000000e+00 -0.000000e+00 1.000000e+00
    outer loop
      vertex   -1.596593e+01 -3.175882e+01 6.000000e+00
      vertex   -1.586603e+01 -3.200000e+01 6.000000e+00
      vertex   -1.600000e+01 -3.150000e+01 6.000000e+00
    endloop
  endfacet
  facet normal 0.000000e+00 0.000000e+00 1.000000e+00
    outer loop
      vertex   -1.600000e+01 -3.150000e+01 6.000000e+00
      vertex   -1.586603e+01 -3.200000e+01 6.000000e+00
      vertex   -1.570711e+01 -3.220711e+01 6.000000e+00
    endloop
  endfacet
  facet normal 0.000000e+00 0.000000e+00 1.000000e+00
    outer loop
      vertex   -1.600000e+01 -3.150000e+01 6.000000e+00
      vertex   -1.570711e+01 -3.220711e+01 6.000000e+00
      vertex   -1.550000e+01 -3.236603e+01 6.000000e+00
    endloop
  endfacet
  facet normal -0.000000e+00 -0.000000e+00 1.000000e+00
    outer loop
      vertex   -1.550000e+01 -3.236603e+01 6.000000e+00
      vertex   -1.525882e+01 -3.246593e+01 6.000000e+00
      vertex   -1.600000e+01 -3.150000e+01 6.000000e+00
    endloop
  endfacet
  facet normal 0.000000e+00 0.000000e+00 1.000000e+00
    outer loop
      vertex   -1.600000e+01 -3.150000e+01 6.000000e+00
      vertex   -1.525882e+01 -3.246593e+01 6.000000e+00
      vertex   -1.500000e+01 -3.250000e+01 6.000000e+00
    endloop
  endfacet
  facet normal 0.000000e+00 0.000000e+00 1.000000e+00
    outer loop
      vertex   -1.100000e+01 -3.250000e+01 6.000000e+00
      vertex   -1.074118e+01 -3.246593e+01 6.000000e+00
      vertex   -1.000000e+01 -3.150000e+01 6.000000e+00
    endloop
  endfacet
  facet normal 0.000000e+00 0.000000e+00 1.000000e+00
    outer loop
      vertex   -1.000000e+01 -3.150000e+01 6.000000e+00
      vertex   -1.074118e+01 -3.246593e+01 6.000000e+00
      vertex   -1.050000e+01 -3.236603e+01 6.000000e+00
    endloop
  endfacet
  facet normal 0.000000e+00 0.000000e+00 1.000000e+00
    outer loop
      vertex   -1.000000e+01 -3.150000e+01 6.000000e+00
      vertex   -1.050000e+01 -3.236603e+01 6.000000e+00
      vertex   -1.029289e+01 -3.220711e+01 6.000000e+00
    endloop
  endfacet
  facet normal 0.000000e+00 0.000000e+00 1.000000e+00
    outer loop
      vertex   -1.029289e+01 -3.220711e+01 6.000000e+00
      vertex   -1.013397e+01 -3.200000e+01 6.000000e+00
      vertex   -1.000000e+01 -3.150000e+01 6.000000e+00
    endloop
  endfacet
  facet normal 0.000000e+00 0.000000e+00 1.000000e+00
    outer loop
      vertex   -1.000000e+01 -3.150000e+01 6.000000e+00
      vertex   -1.013397e+01 -3.200000e+01 6.000000e+00
      vertex   -1.003407e+01 -3.175882e+01 6.000000e+00
    endloop
  endfacet
  facet normal 0.000000e+00 0.000000e+00 1.000000e+00
    outer loop
      vertex   1.000000e+01 -3.150000e+01 6.000000e+00
      vertex   1.600000e+01 -3.150000e+01 6.000000e+00
      vertex   1.000000e+01 1.250000e+01 6.000000e+00
    endloop
  endfacet
  facet normal -0.000000e+00 0.000000e+00 1.000000e+00
    outer loop
      vertex   1.000000e+01 1.250000e+01 6.000000e+00
      vertex   1.600000e+01 -3.150000e+01 6.000000e+00
      vertex   1.600000e+01 3.150000e+01 6.000000e+00
    endloop
  endfacet
  facet normal 0.000000e+00 0.000000e+00 1.000000e+00
    outer loop
      vertex   1.000000e+01 1.250000e+01 6.000000e+00
      vertex   1.600000e+01 3.150000e+01 6.000000e+00
      vertex   1.500000e+01 3.250000e+01 6.000000e+00
    endloop
  endfacet
  facet normal 0.000000e+00 0.000000e+00 1.000000e+00
    outer loop
      vertex   1.500000e+01 3.250000e+01 6.000000e+00
      vertex   1.600000e+01 3.150000e+01 6.000000e+00
      vertex   1.525882e+01 3.246593e+01 6.000000e+00
    endloop
  endfacet
  facet normal 0.000000e+00 0.000000e+00 1.000000e+00
    outer loop
      vertex   1.525882e+01 3.246593e+01 6.000000e+00
      vertex   1.600000e+01 3.150000e+01 6.000000e+00
      vertex   1.550000e+01 3.236603e+01 6.000000e+00
    endloop
  endfacet
  facet normal 0.000000e+00 0.000000e+00 1.000000e+00
    outer loop
      vertex   1.550000e+01 3.236603e+01 6.000000e+00
      vertex   1.600000e+01 3.150000e+01 6.000000e+00
      vertex   1.570711e+01 3.220711e+01 6.000000e+00
    endloop
  endfacet
  facet normal 0.000000e+00 0.000000e+00 1.000000e+00
    outer loop
      vertex   1.570711e+01 3.220711e+01 6.000000e+00
      vertex   1.600000e+01 3.150000e+01 6.000000e+00
      vertex   1.586603e+01 3.200000e+01 6.000000e+00
    endloop
  endfacet
  facet normal 0.000000e+00 0.000000e+00 1.000000e+00
    outer loop
      vertex   1.586603e+01 3.200000e+01 6.000000e+00
      vertex   1.600000e+01 3.150000e+01 6.000000e+00
      vertex   1.596593e+01 3.175882e+01 6.000000e+00
    endloop
  endfacet
  facet normal -0.000000e+00 -0.000000e+00 1.000000e+00
    outer loop
      vertex   1.003407e+01 -3.175882e+01 6.000000e+00
      vertex   1.013397e+01 -3.200000e+01 6.000000e+00
      vertex   1.000000e+01 -3.150000e+01 6.000000e+00
    endloop
  endfacet
  facet normal 0.000000e+00 0.000000e+00 1.000000e+00
    outer loop
      vertex   1.000000e+01 -3.150000e+01 6.000000e+00
      vertex   1.013397e+01 -3.200000e+01 6.000000e+00
      vertex   1.029289e+01 -3.220711e+01 6.000000e+00
    endloop
  endfacet
  facet normal 0.000000e+00 0.000000e+00 1.000000e+00
    outer loop
      vertex   1.000000e+01 -3.150000e+01 6.000000e+00
      vertex   1.029289e+01 -3.220711e+01 6.000000e+00
      vertex   1.050000e+01 -3.236603e+01 6.000000e+00
    endloop
  endfacet
  facet normal -0.000000e+00 -0.000000e+00 1.000000e+00
    outer loop
      vertex   1.050000e+01 -3.236603e+01 6.000000e+00
      vertex   1.074118e+01 -3.246593e+01 6.000000e+00
      vertex   1.000000e+01 -3.150000e+01 6.000000e+00
    endloop
  endfacet
  facet normal 0.000000e+00 0.000000e+00 1.000000e+00
    outer loop
      vertex   1.000000e+01 -3.150000e+01 6.000000e+00
      vertex   1.074118e+01 -3.246593e+01 6.000000e+00
      vertex   1.100000e+01 -3.250000e+01 6.000000e+00
    endloop
  endfacet
  facet normal 0.000000e+00 0.000000e+00 1.000000e+00
    outer loop
      vertex   1.000000e+01 -3.150000e+01 6.000000e+00
      vertex   1.100000e+01 -3.250000e+01 6.000000e+00
      vertex   1.500000e+01 -3.250000e+01 6.000000e+00
    endloop
  endfacet
  facet normal -0.000000e+00 0.000000e+00 1.000000e+00
    outer loop
      vertex   1.000000e+01 -3.150000e+01 6.000000e+00
      vertex   1.500000e+01 -3.250000e+01 6.000000e+00
      vertex   1.600000e+01 -3.150000e+01 6.000000e+00
    endloop
  endfacet
  facet normal 0.000000e+00 0.000000e+00 1.000000e+00
    outer loop
      vertex   1.600000e+01 -3.150000e+01 6.000000e+00
      vertex   1.500000e+01 -3.250000e+01 6.000000e+00
      vertex   1.525882e+01 -3.246593e+01 6.000000e+00
    endloop
  endfacet
  facet normal 0.000000e+00 0.000000e+00 1.000000e+00
    outer loop
      vertex   1.600000e+01 -3.150000e+01 6.000000e+00
      vertex   1.525882e+01 -3.246593e+01 6.000000e+00
      vertex   1.550000e+01 -3.236603e+01 6.000000e+00
    endloop
  endfacet
  facet normal 0.000000e+00 0.000000e+00 1.000000e+00
    outer loop
      vertex   1.550000e+01 -3.236603e+01 6.000000e+00
      vertex   1.570711e+01 -3.220711e+01 6.000000e+00
      vertex   1.600000e+01 -3.150000e+01 6.000000e+00
    endloop
  endfacet
  facet normal 0.000000e+00 0.000000e+00 1.000000e+00
    outer loop
      vertex   1.600000e+01 -3.150000e+01 6.000000e+00
      vertex   1.570711e+01 -3.220711e+01 6.000000e+00
      vertex   1.586603e+01 -3.200000e+01 6.000000e+00
    endloop
  endfacet
  facet normal 0.000000e+00 0.000000e+00 1.000000e+00
    outer loop
      vertex   1.600000e+01 -3.150000e+01 6.000000e+00
      vertex   1.586603e+01 -3.200000e+01 6.000000e+00
      vertex   1.596593e+01 -3.175882e+01 6.000000e+00
    endloop
  endfacet
  facet normal 0.000000e+00 0.000000e+00 1.000000e+00
    outer loop
      vertex   1.500000e+01 3.250000e+01 6.000000e+00
      vertex   -1.500000e+01 3.250000e+01 6.000000e+00
      vertex   1.000000e+01 1.250000e+01 6.000000e+00
    endloop
  endfacet
  facet normal 1.305262e-01 9.914449e-01 -0.000000e+00
    outer loop
      vertex   1.500000e+01 3.250000e+01 0.000000e+00
      vertex   1.500000e+01 3.250000e+01 6.000000e+00
      vertex   1.525882e+01 3.246593e+01 0.000000e+00
    endloop
  endfacet
  facet normal 1.305262e-01 9.914449e-01 -0.000000e+00
    outer loop
      vertex   1.525882e+01 3.246593e+01 0.000000e+00
      vertex   1.500000e+01 3.250000e+01 6.000000e+00
      vertex   1.525882e+01 3.246593e+01 6.000000e+00
    endloop
  endfacet
  facet normal 3.826834e-01 9.238795e-01 -0.000000e+00
    outer loop
      vertex   1.525882e+01 3.246593e+01 0.000000e+00
      vertex   1.525882e+01 3.246593e+01 6.000000e+00
      vertex   1.550000e+01 3.236603e+01 0.000000e+00
    endloop
  endfacet
  facet normal 3.826834e-01 9.238795e-01 -0.000000e+00
    outer loop
      vertex   1.550000e+01 3.236603e+01 0.000000e+00
      vertex   1.525882e+01 3.246593e+01 6.000000e+00
      vertex   1.550000e+01 3.236603e+01 6.000000e+00
    endloop
  endfacet
  facet normal 6.087614e-01 7.933533e-01 -0.000000e+00
    outer loop
      vertex   1.550000e+01 3.236603e+01 0.000000e+00
      vertex   1.550000e+01 3.236603e+01 6.000000e+00
      vertex   1.570711e+01 3.220711e+01 0.000000e+00
    endloop
  endfacet
  facet normal 6.087614e-01 7.933533e-01 -0.000000e+00
    outer loop
      vertex   1.570711e+01 3.220711e+01 0.000000e+00
      vertex   1.550000e+01 3.236603e+01 6.000000e+00
      vertex   1.570711e+01 3.220711e+01 6.000000e+00
    endloop
  endfacet
  facet normal 7.933533e-01 6.087614e-01 -0.000000e+00
    outer loop
      vertex   1.570711e+01 3.220711e+01 0.000000e+00
      vertex   1.570711e+01 3.220711e+01 6.000000e+00
      vertex   1.586603e+01 3.200000e+01 0.000000e+00
    endloop
  endfacet
  facet normal 7.933533e-01 6.087614e-01 -0.000000e+00
    outer loop
      vertex   1.586603e+01 3.200000e+01 0.000000e+00
      vertex   1.570711e+01 3.220711e+01 6.000000e+00
      vertex   1.586603e+01 3.200000e+01 6.000000e+00
    endloop
  endfacet
  facet normal 9.238795e-01 3.826834e-01 -0.000000e+00
    outer loop
      vertex   1.586603e+01 3.200000e+01 0.000000e+00
      vertex   1.586603e+01 3.200000e+01 6.000000e+00
      vertex   1.596593e+01 3.175882e+01 0.000000e+00
    endloop
  endfacet
  facet normal 9.238795e-01 3.826834e-01 -0.000000e+00
    outer loop
      vertex   1.596593e+01 3.175882e+01 0.000000e+00
      vertex   1.586603e+01 3.200000e+01 6.000000e+00
      vertex   1.596593e+01 3.175882e+01 6.000000e+00
    endloop
  endfacet
  facet normal 9.914449e-01 1.305262e-01 -0.000000e+00
    outer loop
      vertex   1.596593e+01 3.175882e+01 0.000000e+00
      vertex   1.596593e+01 3.175882e+01 6.000000e+00
      vertex   1.600000e+01 3.150000e+01 0.000000e+00
    endloop
  endfacet
  facet normal 9.914449e-01 1.305262e-01 -0.000000e+00
    outer loop
      vertex   1.600000e+01 3.150000e+01 0.000000e+00
      vertex   1.596593e+01 3.175882e+01 6.000000e+00
      vertex   1.600000e+01 3.150000e+01 6.000000e+00
    endloop
  endfacet
  facet normal 1.000000e+00 0.000000e+00 0.000000e+00
    outer loop
      vertex   1.600000e+01 3.150000e+01 6.000000e+00
      vertex   1.600000e+01 -3.150000e+01 6.000000e+00
      vertex   1.600000e+01 3.150000e+01 0.000000e+00
    endloop
  endfacet
  facet normal 1.000000e+00 0.000000e+00 0.000000e+00
    outer loop
      vertex   1.600000e+01 3.150000e+01 0.000000e+00
      vertex   1.600000e+01 -3.150000e+01 6.000000e+00
      vertex   1.600000e+01 -3.150000e+01 0.000000e+00
    endloop
  endfacet
  facet normal -1.305262e-01 -9.914449e-01 0.000000e+00
    outer loop
      vertex   -1.500000e+01 -3.250000e+01 0.000000e+00
      vertex   -1.500000e+01 -3.250000e+01 6.000000e+00
      vertex   -1.525882e+01 -3.246593e+01 0.000000e+00
    endloop
  endfacet
  facet normal -1.305262e-01 -9.914449e-01 0.000000e+00
    outer loop
      vertex   -1.525882e+01 -3.246593e+01 0.000000e+00
      vertex   -1.500000e+01 -3.250000e+01 6.000000e+00
      vertex   -1.525882e+01 -3.246593e+01 6.000000e+00
    endloop
  endfacet
  facet normal -3.826834e-01 -9.238795e-01 0.000000e+00
    outer loop
      vertex   -1.525882e+01 -3.246593e+01 0.000000e+00
      vertex   -1.525882e+01 -3.246593e+01 6.000000e+00
      vertex   -1.550000e+01 -3.236603e+01 0.000000e+00
    endloop
  endfacet
  facet normal -3.826834e-01 -9.238795e-01 0.000000e+00
    outer loop
      vertex   -1.550000e+01 -3.236603e+01 0.000000e+00
      vertex   -1.525882e+01 -3.246593e+01 6.000000e+00
      vertex   -1.550000e+01 -3.236603e+01 6.000000e+00
    endloop
  endfacet
  facet normal -6.087614e-01 -7.933533e-01 0.000000e+00
    outer loop
      vertex   -1.550000e+01 -3.236603e+01 0.000000e+00
      vertex   -1.550000e+01 -3.236603e+01 6.000000e+00
      vertex   -1.570711e+01 -3.220711e+01 0.000000e+00
    endloop
  endfacet
  facet normal -6.087614e-01 -7.933533e-01 0.000000e+00
    outer loop
      vertex   -1.570711e+01 -3.220711e+01 0.000000e+00
      vertex   -1.550000e+01 -3.236603e+01 6.000000e+00
      vertex   -1.570711e+01 -3.220711e+01 6.000000e+00
    endloop
  endfacet
  facet normal -7.933533e-01 -6.087614e-01 0.000000e+00
    outer loop
      vertex   -1.570711e+01 -3.220711e+01 0.000000e+00
      vertex   -1.570711e+01 -3.220711e+01 6.000000e+00
      vertex   -1.586603e+01 -3.200000e+01 0.000000e+00
    endloop
  endfacet
  facet normal -7.933533e-01 -6.087614e-01 0.000000e+00
    outer loop
      vertex   -1.586603e+01 -3.200000e+01 0.000000e+00
      vertex   -1.570711e+01 -3.220711e+01 6.000000e+00
      vertex   -1.586603e+01 -3.200000e+01 6.000000e+00
    endloop
  endfacet
  facet normal -9.238795e-01 -3.826834e-01 0.000000e+00
    outer loop
      vertex   -1.586603e+01 -3.200000e+01 0.000000e+00
      vertex   -1.586603e+01 -3.200000e+01 6.000000e+00
      vertex   -1.596593e+01 -3.175882e+01 0.000000e+00
    endloop
  endfacet
  facet normal -9.238795e-01 -3.826834e-01 0.000000e+00
    outer loop
      vertex   -1.596593e+01 -3.175882e+01 0.000000e+00
      vertex   -1.586603e+01 -3.200000e+01 6.000000e+00
      vertex   -1.596593e+01 -3.175882e+01 6.000000e+00
    endloop
  endfacet
  facet normal -9.914449e-01 -1.305262e-01 0.000000e+00
    outer loop
      vertex   -1.596593e+01 -3.175882e+01 0.000000e+00
      vertex   -1.596593e+01 -3.175882e+01 6.000000e+00
      vertex   -1.600000e+01 -3.150000e+01 0.000000e+00
    endloop
  endfacet
  facet normal -9.914449e-01 -1.305262e-01 0.000000e+00
    outer loop
      vertex   -1.600000e+01 -3.150000e+01 0.000000e+00
      vertex   -1.596593e+01 -3.175882e+01 6.000000e+00
      vertex   -1.600000e+01 -3.150000e+01 6.000000e+00
    endloop
  endfacet
  facet normal 0.000000e+00 -1.000000e+00 0.000000e+00
    outer loop
      vertex   -1.500000e+01 -3.250000e+01 0.000000e+00
      vertex   -1.100000e+01 -3.250000e+01 0.000000e+00
      vertex   -1.500000e+01 -3.250000e+01 6.000000e+00
    endloop
  endfacet
  facet normal 0.000000e+00 -1.000000e+00 0.000000e+00
    outer loop
      vertex   -1.500000e+01 -3.250000e+01 6.000000e+00
      vertex   -1.100000e+01 -3.250000e+01 0.000000e+00
      vertex   -1.100000e+01 -3.250000e+01 6.000000e+00
    endloop
  endfacet
  facet normal 9.914449e-01 -1.305262e-01 0.000000e+00
    outer loop
      vertex   -1.000000e+01 -3.150000e+01 0.000000e+00
      vertex   -1.000000e+01 -3.150000e+01 6.000000e+00
      vertex   -1.003407e+01 -3.175882e+01 0.000000e+00
    endloop
  endfacet
  facet normal 9.914449e-01 -1.305262e-01 0.000000e+00
    outer loop
      vertex   -1.003407e+01 -3.175882e+01 0.000000e+00
      vertex   -1.000000e+01 -3.150000e+01 6.000000e+00
      vertex   -1.003407e+01 -3.175882e+01 6.000000e+00
    endloop
  endfacet
  facet normal 9.238795e-01 -3.826834e-01 0.000000e+00
    outer loop
      vertex   -1.003407e+01 -3.175882e+01 0.000000e+00
      vertex   -1.003407e+01 -3.175882e+01 6.000000e+00
      vertex   -1.013397e+01 -3.200000e+01 0.000000e+00
    endloop
  endfacet
  facet normal 9.238795e-01 -3.826834e-01 0.000000e+00
    outer loop
      vertex   -1.013397e+01 -3.200000e+01 0.000000e+00
      vertex   -1.003407e+01 -3.175882e+01 6.000000e+00
      vertex   -1.013397e+01 -3.200000e+01 6.000000e+00
    endloop
  endfacet
  facet normal 7.933533e-01 -6.087614e-01 0.000000e+00
    outer loop
      vertex   -1.013397e+01 -3.200000e+01 0.000000e+00
      vertex   -1.013397e+01 -3.200000e+01 6.000000e+00
      vertex   -1.029289e+01 -3.220711e+01 0.000000e+00
    endloop
  endfacet
  facet normal 7.933533e-01 -6.087614e-01 0.000000e+00
    outer loop
      vertex   -1.029289e+01 -3.220711e+01 0.000000e+00
      vertex   -1.013397e+01 -3.200000e+01 6.000000e+00
      vertex   -1.029289e+01 -3.220711e+01 6.000000e+00
    endloop
  endfacet
  facet normal 6.087614e-01 -7.933533e-01 0.000000e+00
    outer loop
      vertex   -1.029289e+01 -3.220711e+01 0.000000e+00
      vertex   -1.029289e+01 -3.220711e+01 6.000000e+00
      vertex   -1.050000e+01 -3.236603e+01 0.000000e+00
    endloop
  endfacet
  facet normal 6.087614e-01 -7.933533e-01 0.000000e+00
    outer loop
      vertex   -1.050000e+01 -3.236603e+01 0.000000e+00
      vertex   -1.029289e+01 -3.220711e+01 6.000000e+00
      vertex   -1.050000e+01 -3.236603e+01 6.000000e+00
    endloop
  endfacet
  facet normal 3.826834e-01 -9.238795e-01 0.000000e+00
    outer loop
      vertex   -1.050000e+01 -3.236603e+01 0.000000e+00
      vertex   -1.050000e+01 -3.236603e+01 6.000000e+00
      vertex   -1.074118e+01 -3.246593e+01 0.000000e+00
    endloop
  endfacet
  facet normal 3.826834e-01 -9.238795e-01 0.000000e+00
    outer loop
      vertex   -1.074118e+01 -3.246593e+01 0.000000e+00
      vertex   -1.050000e+01 -3.236603e+01 6.000000e+00
      vertex   -1.074118e+01 -3.246593e+01 6.000000e+00
    endloop
  endfacet
  facet normal 1.305262e-01 -9.914449e-01 0.000000e+00
    outer loop
      vertex   -1.074118e+01 -3.246593e+01 0.000000e+00
      vertex   -1.074118e+01 -3.246593e+01 6.000000e+00
      vertex   -1.100000e+01 -3.250000e+01 0.000000e+00
    endloop
  endfacet
  facet normal 1.305262e-01 -9.914449e-01 0.000000e+00
    outer loop
      vertex   -1.100000e+01 -3.250000e+01 0.000000e+00
      vertex   -1.074118e+01 -3.246593e+01 6.000000e+00
      vertex   -1.100000e+01 -3.250000e+01 6.000000e+00
    endloop
  endfacet
  facet normal -1.305262e-01 -9.914449e-01 0.000000e+00
    outer loop
      vertex   1.100000e+01 -3.250000e+01 0.000000e+00
      vertex   1.100000e+01 -3.250000e+01 6.000000e+00
      vertex   1.074118e+01 -3.246593e+01 0.000000e+00
    endloop
  endfacet
  facet normal -1.305262e-01 -9.914449e-01 0.000000e+00
    outer loop
      vertex   1.074118e+01 -3.246593e+01 0.000000e+00
      vertex   1.100000e+01 -3.250000e+01 6.000000e+00
      vertex   1.074118e+01 -3.246593e+01 6.000000e+00
    endloop
  endfacet
  facet normal -3.826834e-01 -9.238795e-01 0.000000e+00
    outer loop
      vertex   1.074118e+01 -3.246593e+01 0.000000e+00
      vertex   1.074118e+01 -3.246593e+01 6.000000e+00
      vertex   1.050000e+01 -3.236603e+01 0.000000e+00
    endloop
  endfacet
  facet normal -3.826834e-01 -9.238795e-01 0.000000e+00
    outer loop
      vertex   1.050000e+01 -3.236603e+01 0.000000e+00
      vertex   1.074118e+01 -3.246593e+01 6.000000e+00
      vertex   1.050000e+01 -3.236603e+01 6.000000e+00
    endloop
  endfacet
  facet normal -6.087614e-01 -7.933533e-01 0.000000e+00
    outer loop
      vertex   1.050000e+01 -3.236603e+01 0.000000e+00
      vertex   1.050000e+01 -3.236603e+01 6.000000e+00
      vertex   1.029289e+01 -3.220711e+01 0.000000e+00
    endloop
  endfacet
  facet normal -6.087614e-01 -7.933533e-01 0.000000e+00
    outer loop
      vertex   1.029289e+01 -3.220711e+01 0.000000e+00
      vertex   1.050000e+01 -3.236603e+01 6.000000e+00
      vertex   1.029289e+01 -3.220711e+01 6.000000e+00
    endloop
  endfacet
  facet normal -7.933533e-01 -6.087614e-01 0.000000e+00
    outer loop
      vertex   1.029289e+01 -3.220711e+01 0.000000e+00
      vertex   1.029289e+01 -3.220711e+01 6.000000e+00
      vertex   1.013397e+01 -3.200000e+01 0.000000e+00
    endloop
  endfacet
  facet normal -7.933533e-01 -6.087614e-01 0.000000e+00
    outer loop
      vertex   1.013397e+01 -3.200000e+01 0.000000e+00
      vertex   1.029289e+01 -3.220711e+01 6.000000e+00
      vertex   1.013397e+01 -3.200000e+01 6.000000e+00
    endloop
  endfacet
  facet normal -9.238795e-01 -3.826834e-01 0.000000e+00
    outer loop
      vertex   1.013397e+01 -3.200000e+01 0.000000e+00
      vertex   1.013397e+01 -3.200000e+01 6.000000e+00
      vertex   1.003407e+01 -3.175882e+01 0.000000e+00
    endloop
  endfacet
  facet normal -9.238795e-01 -3.826834e-01 0.000000e+00
    outer loop
      vertex   1.003407e+01 -3.175882e+01 0.000000e+00
      vertex   1.013397e+01 -3.200000e+01 6.000000e+00
      vertex   1.003407e+01 -3.175882e+01 6.000000e+00
    endloop
  endfacet
  facet normal -9.914449e-01 -1.305262e-01 0.000000e+00
    outer loop
      vertex   1.003407e+01 -3.175882e+01 0.000000e+00
      vertex   1.003407e+01 -3.175882e+01 6.000000e+00
      vertex   1.000000e+01 -3.150000e+01 0.000000e+00
    endloop
  endfacet
  facet normal -9.914449e-01 -1.305262e-01 0.000000e+00
    outer loop
      vertex   1.000000e+01 -3.150000e+01 0.000000e+00
      vertex   1.003407e+01 -3.175882e+01 6.000000e+00
      vertex   1.000000e+01 -3.150000e+01 6.000000e+00
    endloop
  endfacet
  facet normal -1.000000e+00 0.000000e+00 0.000000e+00
    outer loop
      vertex   1.000000e+01 -3.150000e+01 6.000000e+00
      vertex   1.000000e+01 1.250000e+01 6.000000e+00
      vertex   1.000000e+01 -3.150000e+01 0.000000e+00
    endloop
  endfacet
  facet normal -1.000000e+00 0.000000e+00 0.000000e+00
    outer loop
      vertex   1.000000e+01 -3.150000e+01 0.000000e+00
      vertex   1.000000e+01 1.250000e+01 6.000000e+00
      vertex   1.000000e+01 1.250000e+01 0.000000e+00
    endloop
  endfacet
  facet normal 9.914449e-01 -1.305262e-01 0.000000e+00
    outer loop
      vertex   1.600000e+01 -3.150000e+01 0.000000e+00
      vertex   1.600000e+01 -3.150000e+01 6.000000e+00
      vertex   1.596593e+01 -3.175882e+01 0.000000e+00
    endloop
  endfacet
  facet normal 9.914449e-01 -1.305262e-01 0.000000e+00
    outer loop
      vertex   1.596593e+01 -3.175882e+01 0.000000e+00
      vertex   1.600000e+01 -3.150000e+01 6.000000e+00
      vertex   1.596593e+01 -3.175882e+01 6.000000e+00
    endloop
  endfacet
  facet normal 9.238795e-01 -3.826834e-01 0.000000e+00
    outer loop
      vertex   1.596593e+01 -3.175882e+01 0.000000e+00
      vertex   1.596593e+01 -3.175882e+01 6.000000e+00
      vertex   1.586603e+01 -3.200000e+01 0.000000e+00
    endloop
  endfacet
  facet normal 9.238795e-01 -3.826834e-01 0.000000e+00
    outer loop
      vertex   1.586603e+01 -3.200000e+01 0.000000e+00
      vertex   1.596593e+01 -3.175882e+01 6.000000e+00
      vertex   1.586603e+01 -3.200000e+01 6.000000e+00
    endloop
  endfacet
  facet normal 7.933533e-01 -6.087614e-01 0.000000e+00
    outer loop
      vertex   1.586603e+01 -3.200000e+01 0.000000e+00
      vertex   1.586603e+01 -3.200000e+01 6.000000e+00
      vertex   1.570711e+01 -3.220711e+01 0.000000e+00
    endloop
  endfacet
  facet normal 7.933533e-01 -6.087614e-01 0.000000e+00
    outer loop
      vertex   1.570711e+01 -3.220711e+01 0.000000e+00
      vertex   1.586603e+01 -3.200000e+01 6.000000e+00
      vertex   1.570711e+01 -3.220711e+01 6.000000e+00
    endloop
  endfacet
  facet normal 6.087614e-01 -7.933533e-01 0.000000e+00
    outer loop
      vertex   1.570711e+01 -3.220711e+01 0.000000e+00
      vertex   1.570711e+01 -3.220711e+01 6.000000e+00
      vertex   1.550000e+01 -3.236603e+01 0.000000e+00
    endloop
  endfacet
  facet normal 6.087614e-01 -7.933533e-01 0.000000e+00
    outer loop
      vertex   1.550000e+01 -3.236603e+01 0.000000e+00
      vertex   1.570711e+01 -3.220711e+01 6.000000e+00
      vertex   1.550000e+01 -3.236603e+01 6.000000e+00
    endloop
  endfacet
  facet normal 3.826834e-01 -9.238795e-01 0.000000e+00
    outer loop
      vertex   1.550000e+01 -3.236603e+01 0.000000e+00
      vertex   1.550000e+01 -3.236603e+01 6.000000e+00
      vertex   1.525882e+01 -3.246593e+01 0.000000e+00
    endloop
  endfacet
  facet normal 3.826834e-01 -9.238795e-01 0.000000e+00
    outer loop
      vertex   1.525882e+01 -3.246593e+01 0.000000e+00
      vertex   1.550000e+01 -3.236603e+01 6.000000e+00
      vertex   1.525882e+01 -3.246593e+01 6.000000e+00
    endloop
  endfacet
  facet normal 1.305262e-01 -9.914449e-01 0.000000e+00
    outer loop
      vertex   1.525882e+01 -3.246593e+01 0.000000e+00
      vertex   1.525882e+01 -3.246593e+01 6.000000e+00
      vertex   1.500000e+01 -3.250000e+01 0.000000e+00
    endloop
  endfacet
  facet normal 1.305262e-01 -9.914449e-01 0.000000e+00
    outer loop
      vertex   1.500000e+01 -3.250000e+01 0.000000e+00
      vertex   1.525882e+01 -3.246593e+01 6.000000e+00
      vertex   1.500000e+01 -3.250000e+01 6.000000e+00
    endloop
  endfacet
  facet normal 0.000000e+00 -1.000000e+00 0.000000e+00
    outer loop
      vertex   1.100000e+01 -3.250000e+01 0.000000e+00
      vertex   1.500000e+01 -3.250000e+01 0.000000e+00
      vertex   1.100000e+01 -3.250000e+01 6.000000e+00
    endloop
  endfacet
  facet normal 0.000000e+00 -1.000000e+00 0.000000e+00
    outer loop
      vertex   1.100000e+01 -3.250000e+01 6.000000e+00
      vertex   1.500000e+01 -3.250000e+01 0.000000e+00
      vertex   1.500000e+01 -3.250000e+01 6.000000e+00
    endloop
  endfacet
  facet normal 0.000000e+00 -1.000000e+00 0.000000e+00
    outer loop
      vertex   -1.000000e+01 1.250000e+01 0.000000e+00
      vertex   1.000000e+01 1.250000e+01 0.000000e+00
      vertex   -1.000000e+01 1.250000e+01 6.000000e+00
    endloop
  endfacet
  facet normal 0.000000e+00 -1.000000e+00 0.000000e+00
    outer loop
      vertex   -1.000000e+01 1.250000e+01 6.000000e+00
      vertex   1.000000e+01 1.250000e+01 0.000000e+00
      vertex   1.000000e+01 1.250000e+01 6.000000e+00
    endloop
  endfacet
  facet normal 1.000000e+00 1.986821e-09 -0.000000e+00
    outer loop
      vertex   -1.000000e+01 -3.150000e+01 0.000000e+00
      vertex   -1.000000e+01 1.250000e+01 0.000000e+00
      vertex   -1.000000e+01 -3.150000e+01 6.000000e+00
    endloop
  endfacet
  facet normal 1.000000e+00 1.986821e-09 0.000000e+00
    outer loop
      vertex   -1.000000e+01 -3.150000e+01 6.000000e+00
      vertex   -1.000000e+01 1.250000e+01 0.000000e+00
      vertex   -1.000000e+01 1.250000e+01 6.000000e+00
    endloop
  endfacet
  facet normal -1.000000e+00 0.000000e+00 0.000000e+00
    outer loop
      vertex   -1.600000e+01 3.150000e+01 0.000000e+00
      vertex   -1.600000e+01 -3.150000e+01 0.000000e+00
      vertex   -1.600000e+01 3.150000e+01 6.000000e+00
    endloop
  endfacet
  facet normal -1.000000e+00 -0.000000e+00 0.000000e+00
    outer loop
      vertex   -1.600000e+01 3.150000e+01 6.000000e+00
      vertex   -1.600000e+01 -3.150000e+01 0.000000e+00
      vertex   -1.600000e+01 -3.150000e+01 6.000000e+00
    endloop
  endfacet
  facet normal 0.000000e+00 -0.000000e+00 -1.000000e+00
    outer loop
      vertex   -1.596593e+01 3.175882e+01 0.000000e+00
      vertex   -1.586603e+01 3.200000e+01 0.000000e+00
      vertex   -1.600000e+01 3.150000e+01 0.000000e+00
    endloop
  endfacet
  facet normal 0.000000e+00 0.000000e+00 -1.000000e+00
    outer loop
      vertex   -1.600000e+01 3.150000e+01 0.000000e+00
      vertex   -1.586603e+01 3.200000e+01 0.000000e+00
      vertex   -1.570711e+01 3.220711e+01 0.000000e+00
    endloop
  endfacet
  facet normal 0.000000e+00 0.000000e+00 -1.000000e+00
    outer loop
      vertex   -1.600000e+01 3.150000e+01 0.000000e+00
      vertex   -1.570711e+01 3.220711e+01 0.000000e+00
      vertex   -1.550000e+01 3.236603e+01 0.000000e+00
    endloop
  endfacet
  facet normal 0.000000e+00 -0.000000e+00 -1.000000e+00
    outer loop
      vertex   -1.550000e+01 3.236603e+01 0.000000e+00
      vertex   -1.525882e+01 3.246593e+01 0.000000e+00
      vertex   -1.600000e+01 3.150000e+01 0.000000e+00
    endloop
  endfacet
  facet normal 0.000000e+00 0.000000e+00 -1.000000e+00
    outer loop
      vertex   -1.600000e+01 3.150000e+01 0.000000e+00
      vertex   -1.525882e+01 3.246593e+01 0.000000e+00
      vertex   -1.500000e+01 3.250000e+01 0.000000e+00
    endloop
  endfacet
  facet normal 0.000000e+00 0.000000e+00 -1.000000e+00
    outer loop
      vertex   -1.600000e+01 3.150000e+01 0.000000e+00
      vertex   -1.500000e+01 3.250000e+01 0.000000e+00
      vertex   -1.000000e+01 1.250000e+01 0.000000e+00
    endloop
  endfacet
  facet normal 0.000000e+00 0.000000e+00 -1.000000e+00
    outer loop
      vertex   -1.000000e+01 1.250000e+01 0.000000e+00
      vertex   -1.500000e+01 3.250000e+01 0.000000e+00
      vertex   1.500000e+01 3.250000e+01 0.000000e+00
    endloop
  endfacet
  facet normal 0.000000e+00 0.000000e+00 -1.000000e+00
    outer loop
      vertex   -1.000000e+01 1.250000e+01 0.000000e+00
      vertex   1.500000e+01 3.250000e+01 0.000000e+00
      vertex   1.000000e+01 1.250000e+01 0.000000e+00
    endloop
  endfacet
  facet normal 0.000000e+00 0.000000e+00 -1.000000e+00
    outer loop
      vertex   1.000000e+01 1.250000e+01 0.000000e+00
      vertex   1.500000e+01 3.250000e+01 0.000000e+00
      vertex   1.600000e+01 3.150000e+01 0.000000e+00
    endloop
  endfacet
  facet normal 0.000000e+00 0.000000e+00 -1.000000e+00
    outer loop
      vertex   1.000000e+01 1.250000e+01 0.000000e+00
      vertex   1.600000e+01 3.150000e+01 0.000000e+00
      vertex   1.600000e+01 -3.150000e+01 0.000000e+00
    endloop
  endfacet
  facet normal 0.000000e+00 0.000000e+00 -1.000000e+00
    outer loop
      vertex   1.500000e+01 3.250000e+01 0.000000e+00
      vertex   1.525882e+01 3.246593e+01 0.000000e+00
      vertex   1.600000e+01 3.150000e+01 0.000000e+00
    endloop
  endfacet
  facet normal 0.000000e+00 0.000000e+00 -1.000000e+00
    outer loop
      vertex   1.600000e+01 3.150000e+01 0.000000e+00
      vertex   1.525882e+01 3.246593e+01 0.000000e+00
      vertex   1.550000e+01 3.236603e+01 0.000000e+00
    endloop
  endfacet
  facet normal 0.000000e+00 0.000000e+00 -1.000000e+00
    outer loop
      vertex   1.600000e+01 3.150000e+01 0.000000e+00
      vertex   1.550000e+01 3.236603e+01 0.000000e+00
      vertex   1.570711e+01 3.220711e+01 0.000000e+00
    endloop
  endfacet
  facet normal 0.000000e+00 0.000000e+00 -1.000000e+00
    outer loop
      vertex   1.570711e+01 3.220711e+01 0.000000e+00
      vertex   1.586603e+01 3.200000e+01 0.000000e+00
      vertex   1.600000e+01 3.150000e+01 0.000000e+00
    endloop
  endfacet
  facet normal 0.000000e+00 0.000000e+00 -1.000000e+00
    outer loop
      vertex   1.600000e+01 3.150000e+01 0.000000e+00
      vertex   1.586603e+01 3.200000e+01 0.000000e+00
      vertex   1.596593e+01 3.175882e+01 0.000000e+00
    endloop
  endfacet
  facet normal -0.000000e+00 0.000000e+00 -1.000000e+00
    outer loop
      vertex   1.596593e+01 -3.175882e+01 0.000000e+00
      vertex   1.586603e+01 -3.200000e+01 0.000000e+00
      vertex   1.600000e+01 -3.150000e+01 0.000000e+00
    endloop
  endfacet
  facet normal 0.000000e+00 0.000000e+00 -1.000000e+00
    outer loop
      vertex   1.600000e+01 -3.150000e+01 0.000000e+00
      vertex   1.586603e+01 -3.200000e+01 0.000000e+00
      vertex   1.570711e+01 -3.220711e+01 0.000000e+00
    endloop
  endfacet
  facet normal 0.000000e+00 0.000000e+00 -1.000000e+00
    outer loop
      vertex   1.600000e+01 -3.150000e+01 0.000000e+00
      vertex   1.570711e+01 -3.220711e+01 0.000000e+00
      vertex   1.550000e+01 -3.236603e+01 0.000000e+00
    endloop
  endfacet
  facet normal -0.000000e+00 0.000000e+00 -1.000000e+00
    outer loop
      vertex   1.550000e+01 -3.236603e+01 0.000000e+00
      vertex   1.525882e+01 -3.246593e+01 0.000000e+00
      vertex   1.600000e+01 -3.150000e+01 0.000000e+00
    endloop
  endfacet
  facet normal 0.000000e+00 0.000000e+00 -1.000000e+00
    outer loop
      vertex   1.600000e+01 -3.150000e+01 0.000000e+00
      vertex   1.525882e+01 -3.246593e+01 0.000000e+00
      vertex   1.500000e+01 -3.250000e+01 0.000000e+00
    endloop
  endfacet
  facet normal 0.000000e+00 0.000000e+00 -1.000000e+00
    outer loop
      vertex   1.600000e+01 -3.150000e+01 0.000000e+00
      vertex   1.500000e+01 -3.250000e+01 0.000000e+00
      vertex   1.100000e+01 -3.250000e+01 0.000000e+00
    endloop
  endfacet
  facet normal -0.000000e+00 0.000000e+00 -1.000000e+00
    outer loop
      vertex   1.600000e+01 -3.150000e+01 0.000000e+00
      vertex   1.100000e+01 -3.250000e+01 0.000000e+00
      vertex   1.000000e+01 -3.150000e+01 0.000000e+00
    endloop
  endfacet
  facet normal 0.000000e+00 0.000000e+00 -1.000000e+00
    outer loop
      vertex   1.000000e+01 -3.150000e+01 0.000000e+00
      vertex   1.100000e+01 -3.250000e+01 0.000000e+00
      vertex   1.074118e+01 -3.246593e+01 0.000000e+00
    endloop
  endfacet
  facet normal 0.000000e+00 0.000000e+00 -1.000000e+00
    outer loop
      vertex   1.000000e+01 -3.150000e+01 0.000000e+00
      vertex   1.074118e+01 -3.246593e+01 0.000000e+00
      vertex   1.050000e+01 -3.236603e+01 0.000000e+00
    endloop
  endfacet
  facet normal 0.000000e+00 0.000000e+00 -1.000000e+00
    outer loop
      vertex   1.050000e+01 -3.236603e+01 0.000000e+00
      vertex   1.029289e+01 -3.220711e+01 0.000000e+00
      vertex   1.000000e+01 -3.150000e+01 0.000000e+00
    endloop
  endfacet
  facet normal 0.000000e+00 0.000000e+00 -1.000000e+00
    outer loop
      vertex   1.000000e+01 -3.150000e+01 0.000000e+00
      vertex   1.029289e+01 -3.220711e+01 0.000000e+00
      vertex   1.013397e+01 -3.200000e+01 0.000000e+00
    endloop
  endfacet
  facet normal 0.000000e+00 0.000000e+00 -1.000000e+00
    outer loop
      vertex   1.000000e+01 -3.150000e+01 0.000000e+00
      vertex   1.013397e+01 -3.200000e+01 0.000000e+00
      vertex   1.003407e+01 -3.175882e+01 0.000000e+00
    endloop
  endfacet
  facet normal 0.000000e+00 0.000000e+00 -1.000000e+00
    outer loop
      vertex   1.000000e+01 -3.150000e+01 0.000000e+00
      vertex   1.000000e+01 1.250000e+01 0.000000e+00
      vertex   1.600000e+01 -3.150000e+01 0.000000e+00
    endloop
  endfacet
  facet normal 0.000000e+00 0.000000e+00 -1.000000e+00
    outer loop
      vertex   -1.600000e+01 3.150000e+01 0.000000e+00
      vertex   -1.000000e+01 1.250000e+01 0.000000e+00
      vertex   -1.600000e+01 -3.150000e+01 0.000000e+00
    endloop
  endfacet
  facet normal 0.000000e+00 0.000000e+00 -1.000000e+00
    outer loop
      vertex   -1.600000e+01 -3.150000e+01 0.000000e+00
      vertex   -1.000000e+01 1.250000e+01 0.000000e+00
      vertex   -1.000000e+01 -3.150000e+01 0.000000e+00
    endloop
  endfacet
  facet normal 0.000000e+00 0.000000e+00 -1.000000e+00
    outer loop
      vertex   -1.600000e+01 -3.150000e+01 0.000000e+00
      vertex   -1.000000e+01 -3.150000e+01 0.000000e+00
      vertex   -1.500000e+01 -3.250000e+01 0.000000e+00
    endloop
  endfacet
  facet normal 0.000000e+00 0.000000e+00 -1.000000e+00
    outer loop
      vertex   -1.500000e+01 -3.250000e+01 0.000000e+00
      vertex   -1.000000e+01 -3.150000e+01 0.000000e+00
      vertex   -1.100000e+01 -3.250000e+01 0.000000e+00
    endloop
  endfacet
  facet normal 0.000000e+00 0.000000e+00 -1.000000e+00
    outer loop
      vertex   -1.100000e+01 -3.250000e+01 0.000000e+00
      vertex   -1.000000e+01 -3.150000e+01 0.000000e+00
      vertex   -1.074118e+01 -3.246593e+01 0.000000e+00
    endloop
  endfacet
  facet normal 0.000000e+00 0.000000e+00 -1.000000e+00
    outer loop
      vertex   -1.074118e+01 -3.246593e+01 0.000000e+00
      vertex   -1.000000e+01 -3.150000e+01 0.000000e+00
      vertex   -1.050000e+01 -3.236603e+01 0.000000e+00
    endloop
  endfacet
  facet normal 0.000000e+00 0.000000e+00 -1.000000e+00
    outer loop
      vertex   -1.050000e+01 -3.236603e+01 0.000000e+00
      vertex   -1.000000e+01 -3.150000e+01 0.000000e+00
      vertex   -1.029289e+01 -3.220711e+01 0.000000e+00
    endloop
  endfacet
  facet normal 0.000000e+00 0.000000e+00 -1.000000e+00
    outer loop
      vertex   -1.029289e+01 -3.220711e+01 0.000000e+00
      vertex   -1.000000e+01 -3.150000e+01 0.000000e+00
      vertex   -1.013397e+01 -3.200000e+01 0.000000e+00
    endloop
  endfacet
  facet normal 0.000000e+00 0.000000e+00 -1.000000e+00
    outer loop
      vertex   -1.013397e+01 -3.200000e+01 0.000000e+00
      vertex   -1.000000e+01 -3.150000e+01 0.000000e+00
      vertex   -1.003407e+01 -3.175882e+01 0.000000e+00
    endloop
  endfacet
  facet normal 0.000000e+00 0.000000e+00 -1.000000e+00
    outer loop
      vertex   -1.500000e+01 -3.250000e+01 0.000000e+00
      vertex   -1.525882e+01 -3.246593e+01 0.000000e+00
      vertex   -1.600000e+01 -3.150000e+01 0.000000e+00
    endloop
  endfacet
  facet normal 0.000000e+00 0.000000e+00 -1.000000e+00
    outer loop
      vertex   -1.600000e+01 -3.150000e+01 0.000000e+00
      vertex   -1.525882e+01 -3.246593e+01 0.000000e+00
      vertex   -1.550000e+01 -3.236603e+01 0.000000e+00
    endloop
  endfacet
  facet normal 0.000000e+00 0.000000e+00 -1.000000e+00
    outer loop
      vertex   -1.600000e+01 -3.150000e+01 0.000000e+00
      vertex   -1.550000e+01 -3.236603e+01 0.000000e+00
      vertex   -1.570711e+01 -3.220711e+01 0.000000e+00
    endloop
  endfacet
  facet normal 0.000000e+00 0.000000e+00 -1.000000e+00
    outer loop
      vertex   -1.570711e+01 -3.220711e+01 0.000000e+00
      vertex   -1.586603e+01 -3.200000e+01 0.000000e+00
      vertex   -1.600000e+01 -3.150000e+01 0.000000e+00
    endloop
  endfacet
  facet normal 0.000000e+00 0.000000e+00 -1.000000e+00
    outer loop
      vertex   -1.600000e+01 -3.150000e+01 0.000000e+00
      vertex   -1.586603e+01 -3.200000e+01 0.000000e+00
      vertex   -1.596593e+01 -3.175882e+01 0.000000e+00
    endloop
  endfacet
endsolid
